<svg xmlns="http://www.w3.org/2000/svg" width="655" height="422" viewBox="0 0 655 422">
<rect width="655" height="422" fill="#002b36" rx="6" ry="6"/>
<text x="24" y="32" fill="#fdf6e3" font-family="-apple-system, BlinkMacSystemFont, Segoe UI, Roboto, sans-serif" font-size="15" font-weight="bold">RTL Template: Software Write Cycle with Byte Strobes &amp; Pulse Strobe</text>
<line x1="219" y1="44" x2="219" y2="407" stroke="#073642" stroke-dasharray="2,2" stroke-width="1"/>
<text x="241" y="38" fill="#657b83" font-family="monospace" font-size="11" text-anchor="middle">0</text>
<line x1="263" y1="44" x2="263" y2="407" stroke="#073642" stroke-dasharray="2,2" stroke-width="1"/>
<text x="285" y="38" fill="#657b83" font-family="monospace" font-size="11" text-anchor="middle">1</text>
<line x1="307" y1="44" x2="307" y2="407" stroke="#073642" stroke-dasharray="2,2" stroke-width="1"/>
<text x="329" y="38" fill="#657b83" font-family="monospace" font-size="11" text-anchor="middle">2</text>
<line x1="351" y1="44" x2="351" y2="407" stroke="#073642" stroke-dasharray="2,2" stroke-width="1"/>
<text x="373" y="38" fill="#657b83" font-family="monospace" font-size="11" text-anchor="middle">3</text>
<line x1="395" y1="44" x2="395" y2="407" stroke="#073642" stroke-dasharray="2,2" stroke-width="1"/>
<text x="417" y="38" fill="#657b83" font-family="monospace" font-size="11" text-anchor="middle">4</text>
<line x1="439" y1="44" x2="439" y2="407" stroke="#073642" stroke-dasharray="2,2" stroke-width="1"/>
<text x="461" y="38" fill="#657b83" font-family="monospace" font-size="11" text-anchor="middle">5</text>
<line x1="483" y1="44" x2="483" y2="407" stroke="#073642" stroke-dasharray="2,2" stroke-width="1"/>
<text x="505" y="38" fill="#657b83" font-family="monospace" font-size="11" text-anchor="middle">6</text>
<line x1="527" y1="44" x2="527" y2="407" stroke="#073642" stroke-dasharray="2,2" stroke-width="1"/>
<text x="549" y="38" fill="#657b83" font-family="monospace" font-size="11" text-anchor="middle">7</text>
<line x1="571" y1="44" x2="571" y2="407" stroke="#073642" stroke-dasharray="2,2" stroke-width="1"/>
<text x="593" y="38" fill="#657b83" font-family="monospace" font-size="11" text-anchor="middle">8</text>
<line x1="615" y1="44" x2="615" y2="407" stroke="#073642" stroke-dasharray="2,2" stroke-width="1"/>
<text x="24" y="76" fill="#2aa198" font-family="-apple-system, BlinkMacSystemFont, Segoe UI, Roboto, monospace, sans-serif" font-size="13" font-weight="bold">clk_i</text>
<line x1="219" y1="84" x2="219" y2="60" stroke="#f39c12" stroke-width="2.5" stroke-linecap="round"/>
<line x1="219" y1="60" x2="241" y2="60" stroke="#f39c12" stroke-width="2.5" stroke-linecap="round"/>
<line x1="241" y1="60" x2="241" y2="84" stroke="#f39c12" stroke-width="2.5" stroke-linecap="round"/>
<line x1="241" y1="84" x2="263" y2="84" stroke="#f39c12" stroke-width="2.5" stroke-linecap="round"/>
<line x1="216" y1="74" x2="219" y2="69" stroke="#f39c12" stroke-width="1.8"/>
<line x1="219" y1="69" x2="222" y2="74" stroke="#f39c12" stroke-width="1.8"/>
<line x1="263" y1="84" x2="263" y2="60" stroke="#f39c12" stroke-width="2.5" stroke-linecap="round"/>
<line x1="263" y1="60" x2="285" y2="60" stroke="#f39c12" stroke-width="2.5" stroke-linecap="round"/>
<line x1="285" y1="60" x2="285" y2="84" stroke="#f39c12" stroke-width="2.5" stroke-linecap="round"/>
<line x1="285" y1="84" x2="307" y2="84" stroke="#f39c12" stroke-width="2.5" stroke-linecap="round"/>
<line x1="260" y1="74" x2="263" y2="69" stroke="#f39c12" stroke-width="1.8"/>
<line x1="263" y1="69" x2="266" y2="74" stroke="#f39c12" stroke-width="1.8"/>
<line x1="307" y1="84" x2="307" y2="60" stroke="#f39c12" stroke-width="2.5" stroke-linecap="round"/>
<line x1="307" y1="60" x2="329" y2="60" stroke="#f39c12" stroke-width="2.5" stroke-linecap="round"/>
<line x1="329" y1="60" x2="329" y2="84" stroke="#f39c12" stroke-width="2.5" stroke-linecap="round"/>
<line x1="329" y1="84" x2="351" y2="84" stroke="#f39c12" stroke-width="2.5" stroke-linecap="round"/>
<line x1="304" y1="74" x2="307" y2="69" stroke="#f39c12" stroke-width="1.8"/>
<line x1="307" y1="69" x2="310" y2="74" stroke="#f39c12" stroke-width="1.8"/>
<line x1="351" y1="84" x2="351" y2="60" stroke="#f39c12" stroke-width="2.5" stroke-linecap="round"/>
<line x1="351" y1="60" x2="373" y2="60" stroke="#f39c12" stroke-width="2.5" stroke-linecap="round"/>
<line x1="373" y1="60" x2="373" y2="84" stroke="#f39c12" stroke-width="2.5" stroke-linecap="round"/>
<line x1="373" y1="84" x2="395" y2="84" stroke="#f39c12" stroke-width="2.5" stroke-linecap="round"/>
<line x1="348" y1="74" x2="351" y2="69" stroke="#f39c12" stroke-width="1.8"/>
<line x1="351" y1="69" x2="354" y2="74" stroke="#f39c12" stroke-width="1.8"/>
<line x1="395" y1="84" x2="395" y2="60" stroke="#f39c12" stroke-width="2.5" stroke-linecap="round"/>
<line x1="395" y1="60" x2="417" y2="60" stroke="#f39c12" stroke-width="2.5" stroke-linecap="round"/>
<line x1="417" y1="60" x2="417" y2="84" stroke="#f39c12" stroke-width="2.5" stroke-linecap="round"/>
<line x1="417" y1="84" x2="439" y2="84" stroke="#f39c12" stroke-width="2.5" stroke-linecap="round"/>
<line x1="392" y1="74" x2="395" y2="69" stroke="#f39c12" stroke-width="1.8"/>
<line x1="395" y1="69" x2="398" y2="74" stroke="#f39c12" stroke-width="1.8"/>
<line x1="439" y1="84" x2="439" y2="60" stroke="#f39c12" stroke-width="2.5" stroke-linecap="round"/>
<line x1="439" y1="60" x2="461" y2="60" stroke="#f39c12" stroke-width="2.5" stroke-linecap="round"/>
<line x1="461" y1="60" x2="461" y2="84" stroke="#f39c12" stroke-width="2.5" stroke-linecap="round"/>
<line x1="461" y1="84" x2="483" y2="84" stroke="#f39c12" stroke-width="2.5" stroke-linecap="round"/>
<line x1="436" y1="74" x2="439" y2="69" stroke="#f39c12" stroke-width="1.8"/>
<line x1="439" y1="69" x2="442" y2="74" stroke="#f39c12" stroke-width="1.8"/>
<line x1="483" y1="84" x2="483" y2="60" stroke="#f39c12" stroke-width="2.5" stroke-linecap="round"/>
<line x1="483" y1="60" x2="505" y2="60" stroke="#f39c12" stroke-width="2.5" stroke-linecap="round"/>
<line x1="505" y1="60" x2="505" y2="84" stroke="#f39c12" stroke-width="2.5" stroke-linecap="round"/>
<line x1="505" y1="84" x2="527" y2="84" stroke="#f39c12" stroke-width="2.5" stroke-linecap="round"/>
<line x1="480" y1="74" x2="483" y2="69" stroke="#f39c12" stroke-width="1.8"/>
<line x1="483" y1="69" x2="486" y2="74" stroke="#f39c12" stroke-width="1.8"/>
<line x1="527" y1="84" x2="527" y2="60" stroke="#f39c12" stroke-width="2.5" stroke-linecap="round"/>
<line x1="527" y1="60" x2="549" y2="60" stroke="#f39c12" stroke-width="2.5" stroke-linecap="round"/>
<line x1="549" y1="60" x2="549" y2="84" stroke="#f39c12" stroke-width="2.5" stroke-linecap="round"/>
<line x1="549" y1="84" x2="571" y2="84" stroke="#f39c12" stroke-width="2.5" stroke-linecap="round"/>
<line x1="524" y1="74" x2="527" y2="69" stroke="#f39c12" stroke-width="1.8"/>
<line x1="527" y1="69" x2="530" y2="74" stroke="#f39c12" stroke-width="1.8"/>
<line x1="571" y1="84" x2="571" y2="60" stroke="#f39c12" stroke-width="2.5" stroke-linecap="round"/>
<line x1="571" y1="60" x2="593" y2="60" stroke="#f39c12" stroke-width="2.5" stroke-linecap="round"/>
<line x1="593" y1="60" x2="593" y2="84" stroke="#f39c12" stroke-width="2.5" stroke-linecap="round"/>
<line x1="593" y1="84" x2="615" y2="84" stroke="#f39c12" stroke-width="2.5" stroke-linecap="round"/>
<line x1="568" y1="74" x2="571" y2="69" stroke="#f39c12" stroke-width="1.8"/>
<line x1="571" y1="69" x2="574" y2="74" stroke="#f39c12" stroke-width="1.8"/>
<text x="24" y="120" fill="#2aa198" font-family="-apple-system, BlinkMacSystemFont, Segoe UI, Roboto, monospace, sans-serif" font-size="13" font-weight="bold">bus_addr_i</text>
<rect x="219" y="105" width="88" height="22" fill="#586e75" fill-opacity="0.25"/>
<line x1="219" y1="105" x2="307" y2="105" stroke="#586e75" stroke-width="1.5"/>
<line x1="219" y1="127" x2="307" y2="127" stroke="#586e75" stroke-width="1.5"/>
<line x1="219" y1="116" x2="307" y2="116" stroke="#586e75" stroke-dasharray="2,2"/>
<polygon points="312,104 390,104 395,116 390,128 312,128 307,116" fill="#073642" stroke="#2aa198" stroke-width="2"/>
<text x="351" y="120" fill="#fdf6e3" font-family="monospace, sans-serif" font-size="11" font-weight="bold" text-anchor="middle">0x00</text>
<polygon points="400,104 478,104 483,116 478,128 400,128 395,116" fill="#073642" stroke="#2aa198" stroke-width="2"/>
<text x="439" y="120" fill="#fdf6e3" font-family="monospace, sans-serif" font-size="11" font-weight="bold" text-anchor="middle">0x04</text>
<rect x="483" y="105" width="132" height="22" fill="#586e75" fill-opacity="0.25"/>
<line x1="483" y1="105" x2="615" y2="105" stroke="#586e75" stroke-width="1.5"/>
<line x1="483" y1="127" x2="615" y2="127" stroke="#586e75" stroke-width="1.5"/>
<line x1="483" y1="116" x2="615" y2="116" stroke="#586e75" stroke-dasharray="2,2"/>
<text x="24" y="164" fill="#2aa198" font-family="-apple-system, BlinkMacSystemFont, Segoe UI, Roboto, monospace, sans-serif" font-size="13" font-weight="bold">bus_wdata_i</text>
<rect x="219" y="149" width="88" height="22" fill="#586e75" fill-opacity="0.25"/>
<line x1="219" y1="149" x2="307" y2="149" stroke="#586e75" stroke-width="1.5"/>
<line x1="219" y1="171" x2="307" y2="171" stroke="#586e75" stroke-width="1.5"/>
<line x1="219" y1="160" x2="307" y2="160" stroke="#586e75" stroke-dasharray="2,2"/>
<polygon points="312,148 390,148 395,160 390,172 312,172 307,160" fill="#073642" stroke="#2aa198" stroke-width="2"/>
<text x="351" y="164" fill="#fdf6e3" font-family="monospace, sans-serif" font-size="11" font-weight="bold" text-anchor="middle">0xCAFE</text>
<polygon points="400,148 478,148 483,160 478,172 400,172 395,160" fill="#073642" stroke="#2aa198" stroke-width="2"/>
<text x="439" y="164" fill="#fdf6e3" font-family="monospace, sans-serif" font-size="11" font-weight="bold" text-anchor="middle">0xBEEF</text>
<rect x="483" y="149" width="132" height="22" fill="#586e75" fill-opacity="0.25"/>
<line x1="483" y1="149" x2="615" y2="149" stroke="#586e75" stroke-width="1.5"/>
<line x1="483" y1="171" x2="615" y2="171" stroke="#586e75" stroke-width="1.5"/>
<line x1="483" y1="160" x2="615" y2="160" stroke="#586e75" stroke-dasharray="2,2"/>
<text x="24" y="208" fill="#2aa198" font-family="-apple-system, BlinkMacSystemFont, Segoe UI, Roboto, monospace, sans-serif" font-size="13" font-weight="bold">bus_wstrb_i</text>
<line x1="219" y1="216" x2="307" y2="216" stroke="#3498db" stroke-width="2.5" stroke-linecap="round"/>
<line x1="307" y1="216" x2="307" y2="192" stroke="#3498db" stroke-width="2.5" stroke-linecap="round"/>
<line x1="307" y1="192" x2="395" y2="192" stroke="#3498db" stroke-width="2.5" stroke-linecap="round"/>
<line x1="395" y1="192" x2="483" y2="192" stroke="#3498db" stroke-width="2.5" stroke-linecap="round"/>
<line x1="483" y1="192" x2="483" y2="216" stroke="#3498db" stroke-width="2.5" stroke-linecap="round"/>
<line x1="483" y1="216" x2="615" y2="216" stroke="#3498db" stroke-width="2.5" stroke-linecap="round"/>
<text x="24" y="252" fill="#2aa198" font-family="-apple-system, BlinkMacSystemFont, Segoe UI, Roboto, monospace, sans-serif" font-size="13" font-weight="bold">bus_wr_en_i</text>
<line x1="219" y1="260" x2="307" y2="260" stroke="#3498db" stroke-width="2.5" stroke-linecap="round"/>
<line x1="307" y1="260" x2="307" y2="236" stroke="#3498db" stroke-width="2.5" stroke-linecap="round"/>
<line x1="307" y1="236" x2="395" y2="236" stroke="#3498db" stroke-width="2.5" stroke-linecap="round"/>
<line x1="395" y1="236" x2="483" y2="236" stroke="#3498db" stroke-width="2.5" stroke-linecap="round"/>
<line x1="483" y1="236" x2="483" y2="260" stroke="#3498db" stroke-width="2.5" stroke-linecap="round"/>
<line x1="483" y1="260" x2="615" y2="260" stroke="#3498db" stroke-width="2.5" stroke-linecap="round"/>
<text x="24" y="296" fill="#2aa198" font-family="-apple-system, BlinkMacSystemFont, Segoe UI, Roboto, monospace, sans-serif" font-size="13" font-weight="bold">sw_ctrl_wr_strobe_o</text>
<line x1="219" y1="304" x2="307" y2="304" stroke="#3498db" stroke-width="2.5" stroke-linecap="round"/>
<line x1="307" y1="304" x2="307" y2="280" stroke="#3498db" stroke-width="2.5" stroke-linecap="round"/>
<line x1="307" y1="280" x2="395" y2="280" stroke="#3498db" stroke-width="2.5" stroke-linecap="round"/>
<line x1="395" y1="280" x2="395" y2="304" stroke="#3498db" stroke-width="2.5" stroke-linecap="round"/>
<line x1="395" y1="304" x2="615" y2="304" stroke="#3498db" stroke-width="2.5" stroke-linecap="round"/>
<text x="24" y="340" fill="#2aa198" font-family="-apple-system, BlinkMacSystemFont, Segoe UI, Roboto, monospace, sans-serif" font-size="13" font-weight="bold">sw_status_wr_strobe_o</text>
<line x1="219" y1="348" x2="395" y2="348" stroke="#3498db" stroke-width="2.5" stroke-linecap="round"/>
<line x1="395" y1="348" x2="395" y2="324" stroke="#3498db" stroke-width="2.5" stroke-linecap="round"/>
<line x1="395" y1="324" x2="483" y2="324" stroke="#3498db" stroke-width="2.5" stroke-linecap="round"/>
<line x1="483" y1="324" x2="483" y2="348" stroke="#3498db" stroke-width="2.5" stroke-linecap="round"/>
<line x1="483" y1="348" x2="615" y2="348" stroke="#3498db" stroke-width="2.5" stroke-linecap="round"/>
<text x="24" y="384" fill="#2aa198" font-family="-apple-system, BlinkMacSystemFont, Segoe UI, Roboto, monospace, sans-serif" font-size="13" font-weight="bold">reg_ctrl_q</text>
<rect x="219" y="369" width="132" height="22" fill="#586e75" fill-opacity="0.25"/>
<line x1="219" y1="369" x2="351" y2="369" stroke="#586e75" stroke-width="1.5"/>
<line x1="219" y1="391" x2="351" y2="391" stroke="#586e75" stroke-width="1.5"/>
<line x1="219" y1="380" x2="351" y2="380" stroke="#586e75" stroke-dasharray="2,2"/>
<polygon points="356,368 610,368 615,380 610,392 356,392 351,380" fill="#073642" stroke="#2aa198" stroke-width="2"/>
<text x="483" y="384" fill="#fdf6e3" font-family="monospace, sans-serif" font-size="11" font-weight="bold" text-anchor="middle">0xCAFE</text>
</svg>