<svg xmlns="http://www.w3.org/2000/svg" width="628" height="290" viewBox="0 0 628 290">
<rect width="628" height="290" fill="#002b36" rx="6" ry="6"/>
<text x="24" y="32" fill="#fdf6e3" font-family="-apple-system, BlinkMacSystemFont, Segoe UI, Roboto, sans-serif" font-size="15" font-weight="bold">RTL Template: Hardware Update with Write-Enable Condition</text>
<line x1="192" y1="44" x2="192" y2="275" stroke="#073642" stroke-dasharray="2,2" stroke-width="1"/>
<text x="214" y="38" fill="#657b83" font-family="monospace" font-size="11" text-anchor="middle">0</text>
<line x1="236" y1="44" x2="236" y2="275" stroke="#073642" stroke-dasharray="2,2" stroke-width="1"/>
<text x="258" y="38" fill="#657b83" font-family="monospace" font-size="11" text-anchor="middle">1</text>
<line x1="280" y1="44" x2="280" y2="275" stroke="#073642" stroke-dasharray="2,2" stroke-width="1"/>
<text x="302" y="38" fill="#657b83" font-family="monospace" font-size="11" text-anchor="middle">2</text>
<line x1="324" y1="44" x2="324" y2="275" stroke="#073642" stroke-dasharray="2,2" stroke-width="1"/>
<text x="346" y="38" fill="#657b83" font-family="monospace" font-size="11" text-anchor="middle">3</text>
<line x1="368" y1="44" x2="368" y2="275" stroke="#073642" stroke-dasharray="2,2" stroke-width="1"/>
<text x="390" y="38" fill="#657b83" font-family="monospace" font-size="11" text-anchor="middle">4</text>
<line x1="412" y1="44" x2="412" y2="275" stroke="#073642" stroke-dasharray="2,2" stroke-width="1"/>
<text x="434" y="38" fill="#657b83" font-family="monospace" font-size="11" text-anchor="middle">5</text>
<line x1="456" y1="44" x2="456" y2="275" stroke="#073642" stroke-dasharray="2,2" stroke-width="1"/>
<text x="478" y="38" fill="#657b83" font-family="monospace" font-size="11" text-anchor="middle">6</text>
<line x1="500" y1="44" x2="500" y2="275" stroke="#073642" stroke-dasharray="2,2" stroke-width="1"/>
<text x="522" y="38" fill="#657b83" font-family="monospace" font-size="11" text-anchor="middle">7</text>
<line x1="544" y1="44" x2="544" y2="275" stroke="#073642" stroke-dasharray="2,2" stroke-width="1"/>
<text x="566" y="38" fill="#657b83" font-family="monospace" font-size="11" text-anchor="middle">8</text>
<line x1="588" y1="44" x2="588" y2="275" stroke="#073642" stroke-dasharray="2,2" stroke-width="1"/>
<text x="24" y="76" fill="#2aa198" font-family="-apple-system, BlinkMacSystemFont, Segoe UI, Roboto, monospace, sans-serif" font-size="13" font-weight="bold">clk_i</text>
<line x1="192" y1="84" x2="192" y2="60" stroke="#f39c12" stroke-width="2.5" stroke-linecap="round"/>
<line x1="192" y1="60" x2="214" y2="60" stroke="#f39c12" stroke-width="2.5" stroke-linecap="round"/>
<line x1="214" y1="60" x2="214" y2="84" stroke="#f39c12" stroke-width="2.5" stroke-linecap="round"/>
<line x1="214" y1="84" x2="236" y2="84" stroke="#f39c12" stroke-width="2.5" stroke-linecap="round"/>
<line x1="189" y1="74" x2="192" y2="69" stroke="#f39c12" stroke-width="1.8"/>
<line x1="192" y1="69" x2="195" y2="74" stroke="#f39c12" stroke-width="1.8"/>
<line x1="236" y1="84" x2="236" y2="60" stroke="#f39c12" stroke-width="2.5" stroke-linecap="round"/>
<line x1="236" y1="60" x2="258" y2="60" stroke="#f39c12" stroke-width="2.5" stroke-linecap="round"/>
<line x1="258" y1="60" x2="258" y2="84" stroke="#f39c12" stroke-width="2.5" stroke-linecap="round"/>
<line x1="258" y1="84" x2="280" y2="84" stroke="#f39c12" stroke-width="2.5" stroke-linecap="round"/>
<line x1="233" y1="74" x2="236" y2="69" stroke="#f39c12" stroke-width="1.8"/>
<line x1="236" y1="69" x2="239" y2="74" stroke="#f39c12" stroke-width="1.8"/>
<line x1="280" y1="84" x2="280" y2="60" stroke="#f39c12" stroke-width="2.5" stroke-linecap="round"/>
<line x1="280" y1="60" x2="302" y2="60" stroke="#f39c12" stroke-width="2.5" stroke-linecap="round"/>
<line x1="302" y1="60" x2="302" y2="84" stroke="#f39c12" stroke-width="2.5" stroke-linecap="round"/>
<line x1="302" y1="84" x2="324" y2="84" stroke="#f39c12" stroke-width="2.5" stroke-linecap="round"/>
<line x1="277" y1="74" x2="280" y2="69" stroke="#f39c12" stroke-width="1.8"/>
<line x1="280" y1="69" x2="283" y2="74" stroke="#f39c12" stroke-width="1.8"/>
<line x1="324" y1="84" x2="324" y2="60" stroke="#f39c12" stroke-width="2.5" stroke-linecap="round"/>
<line x1="324" y1="60" x2="346" y2="60" stroke="#f39c12" stroke-width="2.5" stroke-linecap="round"/>
<line x1="346" y1="60" x2="346" y2="84" stroke="#f39c12" stroke-width="2.5" stroke-linecap="round"/>
<line x1="346" y1="84" x2="368" y2="84" stroke="#f39c12" stroke-width="2.5" stroke-linecap="round"/>
<line x1="321" y1="74" x2="324" y2="69" stroke="#f39c12" stroke-width="1.8"/>
<line x1="324" y1="69" x2="327" y2="74" stroke="#f39c12" stroke-width="1.8"/>
<line x1="368" y1="84" x2="368" y2="60" stroke="#f39c12" stroke-width="2.5" stroke-linecap="round"/>
<line x1="368" y1="60" x2="390" y2="60" stroke="#f39c12" stroke-width="2.5" stroke-linecap="round"/>
<line x1="390" y1="60" x2="390" y2="84" stroke="#f39c12" stroke-width="2.5" stroke-linecap="round"/>
<line x1="390" y1="84" x2="412" y2="84" stroke="#f39c12" stroke-width="2.5" stroke-linecap="round"/>
<line x1="365" y1="74" x2="368" y2="69" stroke="#f39c12" stroke-width="1.8"/>
<line x1="368" y1="69" x2="371" y2="74" stroke="#f39c12" stroke-width="1.8"/>
<line x1="412" y1="84" x2="412" y2="60" stroke="#f39c12" stroke-width="2.5" stroke-linecap="round"/>
<line x1="412" y1="60" x2="434" y2="60" stroke="#f39c12" stroke-width="2.5" stroke-linecap="round"/>
<line x1="434" y1="60" x2="434" y2="84" stroke="#f39c12" stroke-width="2.5" stroke-linecap="round"/>
<line x1="434" y1="84" x2="456" y2="84" stroke="#f39c12" stroke-width="2.5" stroke-linecap="round"/>
<line x1="409" y1="74" x2="412" y2="69" stroke="#f39c12" stroke-width="1.8"/>
<line x1="412" y1="69" x2="415" y2="74" stroke="#f39c12" stroke-width="1.8"/>
<line x1="456" y1="84" x2="456" y2="60" stroke="#f39c12" stroke-width="2.5" stroke-linecap="round"/>
<line x1="456" y1="60" x2="478" y2="60" stroke="#f39c12" stroke-width="2.5" stroke-linecap="round"/>
<line x1="478" y1="60" x2="478" y2="84" stroke="#f39c12" stroke-width="2.5" stroke-linecap="round"/>
<line x1="478" y1="84" x2="500" y2="84" stroke="#f39c12" stroke-width="2.5" stroke-linecap="round"/>
<line x1="453" y1="74" x2="456" y2="69" stroke="#f39c12" stroke-width="1.8"/>
<line x1="456" y1="69" x2="459" y2="74" stroke="#f39c12" stroke-width="1.8"/>
<line x1="500" y1="84" x2="500" y2="60" stroke="#f39c12" stroke-width="2.5" stroke-linecap="round"/>
<line x1="500" y1="60" x2="522" y2="60" stroke="#f39c12" stroke-width="2.5" stroke-linecap="round"/>
<line x1="522" y1="60" x2="522" y2="84" stroke="#f39c12" stroke-width="2.5" stroke-linecap="round"/>
<line x1="522" y1="84" x2="544" y2="84" stroke="#f39c12" stroke-width="2.5" stroke-linecap="round"/>
<line x1="497" y1="74" x2="500" y2="69" stroke="#f39c12" stroke-width="1.8"/>
<line x1="500" y1="69" x2="503" y2="74" stroke="#f39c12" stroke-width="1.8"/>
<line x1="544" y1="84" x2="544" y2="60" stroke="#f39c12" stroke-width="2.5" stroke-linecap="round"/>
<line x1="544" y1="60" x2="566" y2="60" stroke="#f39c12" stroke-width="2.5" stroke-linecap="round"/>
<line x1="566" y1="60" x2="566" y2="84" stroke="#f39c12" stroke-width="2.5" stroke-linecap="round"/>
<line x1="566" y1="84" x2="588" y2="84" stroke="#f39c12" stroke-width="2.5" stroke-linecap="round"/>
<line x1="541" y1="74" x2="544" y2="69" stroke="#f39c12" stroke-width="1.8"/>
<line x1="544" y1="69" x2="547" y2="74" stroke="#f39c12" stroke-width="1.8"/>
<text x="24" y="120" fill="#2aa198" font-family="-apple-system, BlinkMacSystemFont, Segoe UI, Roboto, monospace, sans-serif" font-size="13" font-weight="bold">hw_status_err_i</text>
<line x1="192" y1="128" x2="368" y2="128" stroke="#3498db" stroke-width="2.5" stroke-linecap="round"/>
<line x1="368" y1="128" x2="368" y2="104" stroke="#3498db" stroke-width="2.5" stroke-linecap="round"/>
<line x1="368" y1="104" x2="456" y2="104" stroke="#3498db" stroke-width="2.5" stroke-linecap="round"/>
<line x1="456" y1="104" x2="456" y2="128" stroke="#3498db" stroke-width="2.5" stroke-linecap="round"/>
<line x1="456" y1="128" x2="588" y2="128" stroke="#3498db" stroke-width="2.5" stroke-linecap="round"/>
<text x="24" y="164" fill="#2aa198" font-family="-apple-system, BlinkMacSystemFont, Segoe UI, Roboto, monospace, sans-serif" font-size="13" font-weight="bold">hw_status_err_we_i</text>
<line x1="192" y1="172" x2="368" y2="172" stroke="#3498db" stroke-width="2.5" stroke-linecap="round"/>
<line x1="368" y1="172" x2="368" y2="148" stroke="#3498db" stroke-width="2.5" stroke-linecap="round"/>
<line x1="368" y1="148" x2="456" y2="148" stroke="#3498db" stroke-width="2.5" stroke-linecap="round"/>
<line x1="456" y1="148" x2="456" y2="172" stroke="#3498db" stroke-width="2.5" stroke-linecap="round"/>
<line x1="456" y1="172" x2="588" y2="172" stroke="#3498db" stroke-width="2.5" stroke-linecap="round"/>
<text x="24" y="208" fill="#2aa198" font-family="-apple-system, BlinkMacSystemFont, Segoe UI, Roboto, monospace, sans-serif" font-size="13" font-weight="bold">reg_status_q[0]</text>
<line x1="192" y1="216" x2="412" y2="216" stroke="#3498db" stroke-width="2.5" stroke-linecap="round"/>
<line x1="412" y1="216" x2="412" y2="192" stroke="#3498db" stroke-width="2.5" stroke-linecap="round"/>
<line x1="412" y1="192" x2="588" y2="192" stroke="#3498db" stroke-width="2.5" stroke-linecap="round"/>
<text x="24" y="252" fill="#2aa198" font-family="-apple-system, BlinkMacSystemFont, Segoe UI, Roboto, monospace, sans-serif" font-size="13" font-weight="bold">hw_status_err_o</text>
<line x1="192" y1="260" x2="412" y2="260" stroke="#3498db" stroke-width="2.5" stroke-linecap="round"/>
<line x1="412" y1="260" x2="412" y2="236" stroke="#3498db" stroke-width="2.5" stroke-linecap="round"/>
<line x1="412" y1="236" x2="588" y2="236" stroke="#3498db" stroke-width="2.5" stroke-linecap="round"/>
</svg>